<?xml version="1.0" standalone="no"?>
<!DOCTYPE svg PUBLIC "-//W3C//DTD SVG 20010904//EN"
 "http://www.w3.org/TR/2001/REC-SVG-20010904/DTD/svg10.dtd">
<svg version="1.0" xmlns="http://www.w3.org/2000/svg"
 width="464.000000pt" height="448.000000pt" viewBox="0 0 464.000000 448.000000"
 preserveAspectRatio="xMidYMid meet">

<g transform="translate(0.000000,448.000000) scale(0.100000,-0.100000)"
fill="#f97316" stroke="none">
<path d="M2480 4456 c-25 -7 -63 -22 -85 -34 -98 -50 -2205 -1426 -2253 -1471
-119 -112 -157 -300 -92 -448 11 -25 93 -158 183 -296 l162 -250 5 461 5 461
108 115 109 116 1200 0 1200 0 129 -116 129 -116 0 -613 0 -613 -152 -131
-151 -131 -1104 0 c-606 0 -1103 -2 -1103 -5 0 -3 160 -252 355 -553 206 -318
377 -570 407 -603 29 -31 76 -68 105 -83 49 -24 61 -26 188 -26 106 0 143 4
168 16 43 22 2182 1410 2231 1448 142 109 198 304 134 463 -25 62 -1401 2191
-1469 2274 -47 56 -99 93 -170 120 -67 26 -179 33 -239 15z"/>
<path d="M1116 2871 c5 -5 72 -57 149 -115 l140 -106 311 0 311 0 139 106 c76
59 143 110 149 115 5 5 -247 9 -600 9 -375 0 -605 -4 -599 -9z"/>
<path d="M970 2234 c0 -460 3 -574 13 -567 6 6 74 61 150 122 l137 113 -2 356
-3 355 -130 90 c-71 49 -138 93 -147 98 -17 9 -18 -21 -18 -567z"/>
<path d="M2288 2709 l-148 -100 0 -353 0 -354 150 -121 150 -122 0 575 c0 317
-1 576 -2 576 -2 0 -69 -46 -150 -101z m102 -289 c0 -5 -4 -10 -10 -10 -5 0
-10 5 -10 10 0 6 5 10 10 10 6 0 10 -4 10 -10z"/>
<path d="M1251 1730 l-144 -110 608 0 607 0 -143 110 -143 110 -321 0 -320 0
-144 -110z"/>
</g>
</svg>
